<svg xmlns="http://www.w3.org/2000/svg" viewBox="0 0 32 32" role="img" aria-label="Automivex">
  <defs>
    <linearGradient id="faviconGradient" x1="0%" y1="0%" x2="100%" y2="100%">
      <stop offset="0%" stop-color="#59d8ff" />
      <stop offset="100%" stop-color="#f4b767" />
    </linearGradient>
  </defs>
  
  <!-- Automivex circuit "A" logo icon -->
  <path
    d="M143 298 c-6 -7 -40 -70 -77 -140 -48 -92 -63 -128 -52 -128 16 0 41 40 102 162 22 43 42 78 45 78 4 0 12 -13 19 -29 10 -24 9 -33 -5 -54 -11 -17 -22 -23 -35 -20 -14 4 -20 0 -20 -10 0 -42 57 -24 84 26 18 35 18 36 -5 78 -26 47 -41 56 -56 37z"
    fill="url(#faviconGradient)"
    transform="translate(-110, -220) scale(0.5)"
  />
  
  <!-- Circuit connections -->
  <path
    d="M244 257 c-3 -8 -4 -21 -3 -28 5 -26 -49 -116 -73 -122 -13 -4 -34 -20 -47 -38 -21 -28 -22 -33 -8 -46 23 -23 50 -9 44 23 -4 20 1 27 20 35 14 5 33 19 42 30 16 20 17 19 41 -30 17 -33 31 -51 43 -51 16 0 14 8 -17 66 -39 70 -40 96 -5 115 27 14 21 53 -9 57 -13 2 -24 -3 -28 -11z"
    fill="url(#faviconGradient)"
    transform="translate(-210, -220) scale(0.5)"
  />
</svg>
