<?xml version="1.0" standalone="no"?>
<!DOCTYPE svg PUBLIC "-//W3C//DTD SVG 20010904//EN"
 "http://www.w3.org/TR/2001/REC-SVG-20010904/DTD/svg10.dtd">
<svg version="1.0" xmlns="http://www.w3.org/2000/svg"
 width="2244.000000pt" height="498.000000pt" viewBox="0 0 2244.000000 498.000000"
 preserveAspectRatio="xMidYMid meet">

<g transform="translate(0.000000,498.000000) scale(0.100000,-0.100000)"
fill="#000000" stroke="none">
<path d="M2625 4964 c-82 -20 -173 -80 -220 -144 -18 -25 -66 -108 -108 -185
-41 -77 -89 -167 -107 -200 -26 -48 -304 -567 -530 -990 -24 -44 -71 -132
-105 -195 -34 -63 -88 -164 -120 -225 -32 -60 -70 -132 -85 -160 -15 -27 -53
-99 -85 -160 -32 -60 -102 -191 -155 -290 -54 -99 -183 -340 -287 -535 -105
-195 -210 -391 -233 -435 -80 -149 -237 -440 -258 -477 -12 -20 -85 -155 -163
-300 -77 -145 -147 -273 -155 -285 -8 -12 -14 -25 -14 -28 0 -3 125 -5 278 -5
l278 0 17 33 c9 17 34 64 55 102 21 39 60 111 86 160 27 50 61 113 76 140 16
28 39 70 52 95 55 103 297 548 315 580 11 19 51 91 88 160 37 69 78 143 90
165 52 94 219 403 305 565 51 96 114 213 140 260 26 47 69 126 95 175 52 98
105 196 141 262 57 105 387 719 540 1005 93 175 171 318 174 318 3 0 22 -33
44 -73 21 -39 118 -218 215 -397 98 -179 198 -364 224 -411 l46 -85 -63 -111
c-35 -60 -85 -152 -113 -204 -28 -52 -76 -141 -108 -199 -31 -57 -77 -144
-101 -192 -54 -107 -103 -164 -169 -194 -69 -33 -87 -31 -109 11 -28 51 -98
113 -162 142 -75 34 -183 34 -259 -1 -66 -30 -126 -89 -161 -158 -37 -72 -39
-196 -5 -275 29 -67 119 -153 186 -179 101 -39 239 -21 322 42 31 23 34 24
102 12 203 -35 428 71 565 266 24 34 72 113 106 176 35 63 71 129 80 145 32
58 168 301 254 455 158 281 158 290 21 545 -397 741 -563 1049 -589 1090 -43
69 -100 122 -171 157 -51 27 -73 31 -150 34 -49 2 -99 1 -110 -2z"/>
<path d="M4480 4309 c-80 -15 -181 -73 -244 -138 -166 -175 -187 -437 -52
-651 19 -30 33 -57 31 -60 -8 -14 -234 -416 -275 -490 -26 -47 -88 -157 -137
-245 -49 -88 -105 -187 -123 -220 -18 -33 -56 -100 -85 -150 -28 -49 -55 -97
-58 -105 -4 -8 -29 -51 -55 -96 -26 -44 -83 -145 -127 -224 -143 -256 -201
-298 -456 -330 -182 -24 -270 -48 -361 -101 -162 -95 -306 -285 -357 -474 -10
-38 -14 -41 -72 -59 -284 -88 -427 -418 -297 -686 116 -240 434 -342 684 -219
138 68 237 208 257 362 20 157 -20 290 -122 399 l-55 60 37 74 c42 85 93 145
152 180 35 20 68 27 191 40 190 19 288 43 394 96 150 75 241 184 400 473 70
128 192 340 200 348 9 10 26 -17 100 -158 92 -175 141 -267 205 -385 65 -122
122 -227 200 -375 26 -49 76 -142 110 -205 63 -116 147 -275 261 -495 l63
-120 286 -3 286 -2 -17 32 c-9 18 -87 161 -172 318 -85 157 -167 308 -182 335
-29 53 -84 152 -197 355 -39 69 -87 157 -108 195 -21 39 -46 84 -55 100 -10
17 -31 55 -48 85 -16 30 -54 100 -84 155 -94 171 -167 303 -269 486 -55 97
-99 179 -99 182 0 3 42 81 94 174 51 92 134 245 184 338 l92 170 87 18 c167
35 293 131 367 280 100 204 64 438 -94 598 -123 125 -294 174 -480 138z m213
-344 c42 -20 83 -73 93 -121 15 -77 -47 -173 -128 -194 -65 -18 -122 -5 -167
38 -88 84 -72 217 35 280 46 27 107 26 167 -3z m-2340 -3318 c93 -52 114 -179
44 -256 -28 -30 -94 -61 -132 -61 -46 0 -109 34 -140 74 -57 75 -40 180 40
234 66 46 117 48 188 9z"/>
<path d="M16902 4162 c-213 -77 -217 -363 -6 -442 111 -41 230 -18 306 60 55
58 73 109 65 194 -7 75 -43 128 -114 168 -70 39 -173 47 -251 20z"/>
<path d="M7510 3918 c-6 -13 -199 -446 -429 -963 l-419 -940 226 -3 c124 -1
227 0 229 2 3 2 42 93 87 203 l83 198 450 3 449 2 85 -205 84 -205 233 0 c127
0 232 3 232 8 -1 4 -193 437 -428 962 l-428 955 -222 3 -222 2 -10 -22z m385
-796 c80 -195 145 -356 142 -358 -2 -2 -139 -3 -304 -2 l-301 3 151 362 c83
200 154 360 158 355 4 -4 73 -166 154 -360z"/>
<path d="M10940 3655 l0 -165 -115 0 -115 0 2 -162 3 -163 112 -3 111 -3 5
-382 c4 -410 6 -429 61 -541 31 -63 110 -144 176 -180 161 -88 447 -89 618 -2
l50 25 -49 128 c-27 70 -54 138 -59 150 l-9 22 -53 -24 c-97 -45 -220 -24
-271 46 -32 44 -37 96 -37 432 l0 327 185 0 185 0 0 165 0 165 -185 0 -185 0
0 165 0 165 -215 0 -215 0 0 -165z"/>
<path d="M12565 3485 c-153 -39 -256 -95 -354 -188 -147 -143 -215 -292 -228
-502 -21 -368 209 -680 572 -776 100 -26 283 -36 385 -20 324 51 567 261 647
561 23 87 23 289 0 382 -54 221 -207 402 -417 496 -170 75 -422 95 -605 47z
m398 -363 c135 -67 197 -173 205 -352 5 -119 -15 -198 -69 -276 -85 -124 -259
-182 -410 -138 -111 32 -184 98 -236 211 -36 77 -44 229 -18 319 53 181 186
277 376 271 74 -3 96 -8 152 -35z"/>
<path d="M14640 3503 c-95 -16 -233 -83 -297 -146 l-33 -31 0 82 0 82 -205 0
-205 0 0 -740 0 -740 215 0 214 0 3 443 3 442 29 63 c58 126 167 189 310 180
114 -8 181 -53 230 -158 20 -43 21 -61 24 -507 l3 -463 214 0 215 0 0 368 c0
202 4 403 9 448 23 199 139 314 316 314 128 0 220 -59 262 -169 16 -41 18 -94
21 -503 l3 -458 215 0 215 0 -3 513 c-3 452 -6 519 -21 572 -64 215 -211 357
-417 401 -84 18 -247 18 -331 0 -118 -25 -253 -100 -333 -184 l-29 -31 -62 65
c-49 50 -81 73 -146 103 -46 21 -108 44 -137 50 -50 10 -228 13 -282 4z"/>
<path d="M19730 3487 c-256 -70 -437 -229 -525 -463 -49 -130 -58 -341 -21
-479 73 -267 279 -455 582 -532 99 -25 392 -24 484 1 137 38 255 102 329 180
l34 35 -38 43 c-21 24 -71 78 -111 122 l-73 78 -48 -35 c-109 -79 -181 -101
-333 -100 -95 0 -125 4 -172 22 -118 46 -196 122 -231 225 l-16 46 559 0 c499
0 558 2 564 16 10 25 7 185 -5 250 -37 212 -152 392 -320 497 -131 83 -225
108 -419 113 -138 4 -164 2 -240 -19z m338 -315 c116 -37 203 -125 236 -239
l15 -53 -366 0 -365 0 7 37 c21 115 130 226 254 259 67 18 151 17 219 -4z"/>
<path d="M8993 2983 c3 -449 5 -515 21 -567 62 -210 198 -345 401 -401 33 -9
108 -19 166 -22 173 -9 304 29 432 126 l67 50 0 -79 0 -80 205 0 205 0 0 740
0 740 -215 0 -215 0 0 -393 c0 -242 -4 -416 -11 -453 -32 -172 -139 -269 -310
-281 -103 -8 -167 14 -229 76 -84 84 -84 82 -88 599 l-3 452 -215 0 -215 0 4
-507z"/>
<path d="M16790 2750 l0 -740 215 0 215 0 0 740 0 740 -215 0 -215 0 0 -740z"/>
<path d="M17409 3468 c5 -13 143 -340 306 -728 163 -388 299 -711 302 -717 4
-10 59 -13 227 -13 l222 0 312 738 311 737 -197 3 c-108 1 -201 1 -207 -2 -6
-2 -105 -227 -220 -500 -114 -272 -211 -494 -214 -491 -3 2 -96 226 -206 499
l-200 496 -222 0 -223 0 9 -22z"/>
<path d="M20850 3485 c0 -3 122 -167 270 -365 155 -207 268 -366 264 -372 -4
-6 -132 -175 -285 -375 l-278 -363 234 0 235 0 161 218 c89 119 165 221 169
225 4 5 81 -93 170 -217 l162 -226 245 0 244 0 -109 143 c-467 612 -465 609
-452 631 7 11 126 169 265 351 138 181 255 336 259 343 6 9 -41 12 -221 12
l-228 -1 -159 -215 -158 -215 -47 63 c-25 35 -95 132 -156 216 l-110 152 -237
0 c-131 0 -238 -2 -238 -5z"/>
<path d="M12638 1717 c-71 -66 -23 -177 77 -177 104 0 157 105 88 175 -22 21
-35 25 -83 25 -46 0 -62 -5 -82 -23z"/>
<path d="M19547 1729 c-29 -17 -49 -68 -43 -105 9 -44 57 -84 102 -84 45 0
100 23 113 48 20 38 13 94 -16 124 -23 24 -34 28 -82 28 -31 0 -64 -5 -74 -11z"/>
<path d="M7480 1245 l0 -445 95 0 95 0 0 188 c0 160 3 193 19 228 23 50 68 74
140 74 42 0 56 -5 83 -29 l33 -29 5 -214 5 -213 93 -3 93 -3 -3 238 c-3 232
-4 240 -28 287 -34 65 -81 102 -160 122 -80 20 -172 8 -231 -31 -21 -14 -41
-25 -44 -25 -3 0 -5 68 -5 150 l0 150 -95 0 -95 0 0 -445z"/>
<path d="M11902 1248 l3 -443 93 -3 92 -3 0 446 0 445 -95 0 -95 0 2 -442z"/>
<path d="M12262 1248 l3 -443 93 -3 92 -3 0 446 0 445 -95 0 -95 0 2 -442z"/>
<path d="M17820 1245 l0 -446 93 3 92 3 3 443 2 442 -95 0 -95 0 0 -445z"/>
<path d="M16473 1645 c-154 -34 -235 -120 -235 -251 0 -99 48 -164 153 -208
19 -8 82 -26 139 -41 168 -43 211 -76 181 -141 -34 -75 -264 -71 -390 6 -18
12 -34 20 -36 18 -7 -8 -53 -105 -59 -125 -6 -18 1 -25 47 -48 74 -36 146 -53
247 -61 234 -17 390 85 390 257 0 130 -66 187 -284 244 -152 40 -183 55 -192
91 -12 46 4 74 53 96 62 27 175 20 266 -16 34 -14 64 -22 68 -18 3 4 18 35 32
69 l26 63 -22 14 c-49 31 -207 67 -287 65 -19 0 -63 -7 -97 -14z"/>
<path d="M6662 1563 l3 -78 133 -3 132 -3 0 -339 0 -340 95 0 95 0 0 340 0
340 135 0 135 0 0 80 0 80 -365 0 -366 0 3 -77z"/>
<path d="M9420 1220 l0 -420 95 0 95 0 0 420 0 420 -95 0 -95 0 0 -420z"/>
<path d="M10650 1520 l0 -70 -50 0 -51 0 3 -72 3 -73 48 -3 47 -3 0 -163 c0
-224 15 -265 115 -312 38 -18 67 -24 122 -24 76 0 157 24 150 44 -2 6 -12 35
-23 64 -18 51 -19 52 -49 45 -52 -13 -88 -7 -107 17 -16 19 -18 42 -18 176 l0
153 78 3 77 3 3 73 3 72 -81 0 -80 0 0 70 0 70 -95 0 -95 0 0 -70z"/>
<path d="M15430 1520 l0 -70 -50 0 -51 0 3 -72 3 -73 47 -3 46 -3 4 -172 c3
-162 5 -176 28 -222 38 -72 103 -105 211 -105 79 0 149 18 149 39 0 10 -39
113 -45 119 -2 2 -21 -2 -44 -8 -33 -9 -46 -8 -70 4 -16 9 -31 23 -35 31 -3 9
-6 84 -6 165 l0 149 78 3 77 3 3 73 3 72 -81 0 -80 0 0 70 0 70 -95 0 -95 0 0
-70z"/>
<path d="M19030 1520 l0 -70 -50 0 -50 0 0 -75 0 -75 50 0 50 0 0 -170 c0
-131 4 -179 15 -208 36 -85 101 -121 217 -122 91 0 163 23 153 49 -4 9 -15 39
-26 68 l-20 51 -38 -15 c-33 -13 -43 -13 -67 -2 -47 23 -54 50 -54 207 l0 142
80 0 80 0 0 75 0 75 -80 0 -80 0 0 70 0 70 -90 0 -90 0 0 -70z"/>
<path d="M8510 1445 c-109 -31 -172 -83 -219 -185 -21 -45 -25 -70 -25 -135 0
-102 27 -166 95 -230 82 -76 123 -90 269 -90 116 0 129 2 175 26 28 15 59 36
69 48 19 20 18 21 -25 68 -24 27 -47 49 -51 51 -4 2 -21 -7 -38 -20 -24 -18
-48 -23 -104 -26 -98 -5 -156 19 -186 77 l-20 41 245 0 245 0 0 58 c0 147 -80
263 -211 309 -65 22 -156 25 -219 8z m185 -155 c32 -20 65 -68 65 -94 0 -14
-20 -16 -155 -16 -102 0 -155 4 -155 10 0 19 27 64 52 86 51 46 131 52 193 14z"/>
<path d="M10108 1447 c-26 -8 -65 -26 -87 -40 l-41 -27 0 35 0 35 -90 0 -90 0
0 -325 0 -326 93 3 92 3 5 200 c5 217 9 232 63 265 37 23 118 26 157 7 52 -26
60 -63 60 -279 l0 -198 96 0 96 0 -4 233 c-4 259 -10 289 -79 354 -64 61 -178
86 -271 60z"/>
<path d="M11370 1451 c-102 -21 -193 -90 -237 -179 -25 -50 -28 -68 -28 -147
1 -105 21 -158 87 -226 65 -67 134 -93 258 -97 90 -3 114 -1 164 18 32 12 72
35 90 51 l31 28 -51 51 -50 51 -47 -27 c-42 -23 -56 -26 -126 -23 -66 3 -83 8
-113 31 -20 15 -41 41 -46 58 l-11 30 242 2 242 3 -1 71 c-4 208 -190 348
-404 305z m120 -141 c42 -12 96 -64 105 -102 l7 -28 -156 0 c-107 0 -156 3
-156 11 0 24 33 79 57 95 50 32 90 39 143 24z"/>
<path d="M13172 1445 c-102 -29 -161 -75 -203 -161 -20 -41 -24 -64 -24 -139
0 -78 4 -97 27 -140 50 -95 129 -148 245 -165 94 -13 167 4 221 53 l22 20 0
-42 c0 -90 -48 -143 -140 -157 -61 -10 -162 9 -223 41 -27 14 -51 24 -52 23
-12 -14 -65 -117 -65 -126 0 -13 80 -55 124 -66 128 -31 300 -24 378 15 52 26
104 73 125 114 38 71 43 123 43 433 l0 303 -87 -3 -88 -3 -5 -34 c-4 -30 -7
-32 -18 -19 -41 50 -190 78 -280 53z m217 -166 c62 -34 89 -102 70 -174 -20
-74 -79 -115 -166 -115 -166 1 -227 215 -83 291 48 26 132 25 179 -2z"/>
<path d="M14043 1450 c-96 -20 -185 -87 -231 -175 -24 -45 -27 -61 -27 -150 0
-92 2 -104 29 -153 35 -63 77 -102 149 -139 45 -24 66 -28 162 -31 123 -4 190
13 254 66 l33 28 -48 52 -49 53 -49 -26 c-57 -29 -155 -34 -209 -11 -37 16
-72 51 -82 84 l-6 22 240 0 241 0 6 25 c9 35 -11 139 -37 191 -27 57 -107 128
-167 149 -58 20 -153 27 -209 15z m122 -141 c48 -13 83 -43 101 -86 8 -18 14
-35 14 -38 0 -3 -70 -5 -155 -5 -170 0 -171 0 -141 59 19 35 37 50 83 67 47
16 49 16 98 3z"/>
<path d="M14887 1446 c-26 -7 -64 -25 -85 -40 l-37 -26 -3 35 -3 35 -90 0 -89
0 0 -325 0 -325 95 0 95 0 0 188 c0 160 3 193 19 228 23 50 68 74 140 74 42 0
56 -5 83 -29 l33 -29 5 -214 5 -213 93 -3 94 -3 -4 238 c-4 256 -8 276 -62
340 -53 63 -193 96 -289 69z"/>
<path d="M17242 1445 c-103 -29 -176 -85 -220 -169 -24 -45 -27 -62 -27 -151
0 -92 2 -104 30 -154 33 -60 87 -110 154 -143 68 -34 224 -38 303 -8 71 26
145 92 178 156 33 65 40 189 15 263 -52 156 -259 255 -433 206z m189 -169 c47
-32 70 -83 70 -152 0 -75 -25 -123 -81 -151 -52 -27 -95 -29 -150 -7 -116 47
-122 261 -8 317 51 25 126 22 169 -7z"/>
<path d="M20090 1445 c-113 -32 -192 -102 -231 -204 -45 -118 -7 -278 83 -355
71 -61 121 -79 233 -84 86 -3 109 -1 160 19 82 30 165 113 190 188 39 119 12
259 -67 340 -86 90 -243 131 -368 96z m186 -164 c74 -45 101 -163 57 -247 -55
-107 -222 -110 -281 -5 -26 46 -30 137 -8 179 16 30 63 77 86 85 36 13 116 6
146 -12z"/>
<path d="M20977 1446 c-26 -7 -64 -25 -85 -40 l-37 -26 -3 35 -3 35 -90 0 -89
0 0 -325 0 -325 95 0 95 0 0 185 c0 210 9 250 65 285 40 25 130 27 163 4 47
-33 52 -59 52 -274 l0 -200 95 0 95 0 0 213 c0 231 -7 276 -54 347 -49 75
-192 116 -299 86z"/>
<path d="M21662 1449 c-169 -28 -253 -161 -186 -291 23 -44 88 -75 209 -98
119 -23 155 -40 155 -70 0 -56 -136 -69 -267 -25 -42 14 -77 24 -78 23 -2 -2
-15 -30 -30 -63 -31 -70 -28 -74 64 -101 212 -61 418 -18 472 100 24 54 24
100 -2 152 -32 68 -73 86 -276 125 -69 13 -99 36 -88 68 10 33 44 45 125 45
55 -1 88 -7 124 -22 27 -12 50 -21 51 -20 11 13 55 110 55 121 0 18 -36 33
-125 52 -77 16 -123 17 -203 4z"/>
<path d="M12630 1125 l0 -325 90 0 90 0 0 325 0 325 -90 0 -90 0 0 -325z"/>
<path d="M18182 1213 c3 -232 4 -239 29 -288 66 -131 256 -171 393 -84 l46 29
0 -35 0 -35 90 0 90 0 0 325 0 325 -95 0 -95 0 0 -185 c0 -210 -9 -250 -65
-285 -50 -31 -126 -28 -165 8 -43 37 -49 77 -50 285 l0 177 -91 0 -90 0 3
-237z"/>
<path d="M19525 1437 c-3 -7 -4 -152 -3 -322 l3 -310 93 -3 92 -3 0 326 0 325
-90 0 c-64 0 -92 -4 -95 -13z"/>
</g>
</svg>
