<svg version="1.0" xmlns="http://www.w3.org/2000/svg" viewBox="0 0 2244 498" preserveAspectRatio="xMidYMid meet">
  <defs>
    <linearGradient id="cyanGradientLight" x1="0%" y1="0%" x2="100%" y2="100%">
      <stop offset="0%" style="stop-color:#0b74f5;stop-opacity:1" />
      <stop offset="100%" style="stop-color:#00a8e8;stop-opacity:1" />
    </linearGradient>
  </defs>
  
  <g transform="translate(0,498) scale(0.1,-0.1)" fill="url(#cyanGradientLight)" stroke="none">
    <path d="M2625 4964 c-82 -20 -173 -80 -220 -144 -18 -25 -66 -108 -108 -185 -41 -77 -89 -167 -107 -200 -26 -48 -304 -567 -530 -990 -24 -44 -71 -132 -105 -195 -34 -63 -88 -164 -120 -225 -32 -60 -70 -132 -85 -160 -15 -27 -53 -99 -85 -160 -32 -60 -102 -191 -155 -290 -54 -99 -183 -340 -287 -535 -105 -195 -210 -391 -233 -435 -80 -149 -237 -440 -258 -477 -12 -20 -85 -155 -163 -300 -77 -145 -147 -273 -155 -285 -8 -12 -14 -25 -14 -28 0 -3 125 -5 278 -5 l278 0 17 33 c9 17 34 64 55 102 21 39 60 111 86 160 27 50 61 113 76 140 16 28 39 70 52 95 55 103 297 548 315 580 11 19 51 91 88 160 37 69 78 143 90 165 52 94 219 403 305 565 51 96 114 213 140 260 26 47 69 126 95 175 52 98 105 196 141 262 57 105 387 719 540 1005 93 175 171 318 174 318 3 0 22 -33 44 -73 21 -39 118 -218 215 -397 98 -179 198 -364 224 -411 l46 -85 -63 -111 c-35 -60 -85 -152 -113 -204 -28 -52 -76 -141 -108 -199 -31 -57 -77 -144 -101 -192 -54 -107 -103 -164 -169 -194 -69 -33 -87 -31 -109 11 -28 51 -98 113 -162 142 -75 34 -183 34 -259 -1 -66 -30 -126 -89 -161 -158 -37 -72 -39 -196 -5 -275 29 -67 119 -153 186 -179 101 -39 239 -21 322 42 31 23 34 24 102 12 203 -35 428 71 565 266 24 34 72 113 106 176 35 63 71 129 80 145 32 58 168 301 254 455 158 281 158 290 21 545 -397 741 -563 1049 -589 1090 -43 69 -100 122 -171 157 -51 27 -73 31 -150 34 -49 2 -99 1 -110 -2z"/>
    <path d="M4480 4309 c-80 -15 -181 -73 -244 -138 -166 -175 -187 -437 -52 -651 19 -30 33 -57 31 -60 -8 -14 -234 -416 -275 -490 -26 -47 -88 -157 -137 -245 -49 -88 -105 -187 -123 -220 -18 -33 -56 -100 -85 -150 -28 -49 -55 -97 -58 -105 -4 -8 -29 -51 -55 -96 -26 -44 -83 -145 -127 -224 -143 -256 -201 -298 -456 -330 -182 -24 -270 -48 -361 -101 -162 -95 -306 -285 -357 -474 -10 -38 -14 -41 -72 -59 -284 -88 -427 -418 -297 -686 116 -240 434 -342 684 -219 138 68 237 208 257 362 20 157 -20 290 -122 399 l-55 60 37 74 c42 85 93 145 152 180 35 20 68 27 191 40 190 19 288 43 394 96 150 75 241 184 400 473 70 128 192 340 200 348 9 10 26 -17 100 -158 92 -175 141 -267 205 -385 65 -122 122 -227 200 -375 26 -49 76 -142 110 -205 63 -116 147 -275 261 -495 l63 -120 286 -3 286 -2 -17 32 c-9 18 -87 161 -172 318 -85 157 -167 308 -182 335 -29 53 -84 152 -197 355 -39 69 -87 157 -108 195 -21 39 -46 84 -55 100 -10 17 -31 55 -48 85 -16 30 -54 100 -84 155 -94 171 -167 303 -269 486 -55 97 -99 179 -99 182 0 3 42 81 94 174 51 92 134 245 184 338 l92 170 87 18 c167 35 293 131 367 280 100 204 64 438 -94 598 -123 125 -294 174 -480 138z m213 -344 c42 -20 83 -73 93 -121 15 -77 -47 -173 -128 -194 -65 -18 -122 -5 -167 38 -88 84 -72 217 35 280 46 27 107 26 167 -3z m-2340 -3318 c93 -52 114 -179 44 -256 -28 -30 -94 -61 -132 -61 -46 0 -109 34 -140 74 -57 75 -40 180 40 234 66 46 117 48 188 9z"/>
    <path d="M16902 4162 c-213 -77 -217 -363 -6 -442 111 -41 230 -18 306 60 55 58 73 109 65 194 -7 75 -43 128 -114 168 -70 39 -173 47 -251 20z"/>
  </g>
</svg>